<svg width="87" height="64" viewBox="0 0 87 64" fill="none" xmlns="http://www.w3.org/2000/svg">
<path d="M48.7004 5.46122C48.5261 5.35466 48.3528 5.27627 48.1816 5.25422C47.9809 5.20502 47.8106 5.21114 47.6708 5.27258C47.5309 5.33401 47.4499 5.44975 47.3992 5.62081C47.3495 5.82004 47.4701 6.01314 47.763 6.25647C47.9677 6.41835 48.1136 6.52592 48.1724 6.58022C48.2312 6.63452 48.3193 6.71597 48.3791 6.79844C48.4389 6.88091 48.4997 6.99155 48.5038 7.10422C48.5362 7.21588 48.5402 7.32856 48.4885 7.47145C48.4146 7.78437 48.2524 8.01585 48.0011 8.1377C47.7497 8.25956 47.467 8.29793 47.1802 8.22362C46.8934 8.14931 46.6624 8.04479 46.486 7.88189L46.6452 7.56591C46.8782 7.72677 47.0809 7.83231 47.2532 7.88253C47.4538 7.93173 47.6525 7.92459 47.8197 7.83396C47.9869 7.74333 48.068 7.62759 48.1176 7.42837C48.141 7.2865 48.1359 7.14565 48.0751 7.03501C48.0143 6.92438 47.8674 6.78863 47.691 6.62573C47.4863 6.46385 47.3404 6.35628 47.2816 6.30198C47.2228 6.24768 47.1641 6.19338 47.1033 6.08274C47.0425 5.9721 47.0121 5.91678 47.008 5.8041C47.004 5.69143 47.0009 5.60692 47.0263 5.52139C47.0739 5.26582 47.2371 5.06252 47.461 4.96985C47.685 4.87718 47.9394 4.83983 48.2545 4.91312C48.4836 4.9613 48.6852 5.03867 48.8879 5.14421L48.7004 5.46122Z" fill="white"/>
<path d="M51.046 9.04326L49.3556 8.65272L50.1208 5.43795L51.7828 5.82951L51.7088 6.14244L50.4188 5.82213L50.1704 6.81826L51.4311 7.11142L51.3571 7.42434L50.0964 7.13118L49.8005 8.38288L51.1189 8.70217L51.046 9.04326Z" fill="white"/>
<path d="M53.8261 9.73338L52.1348 9.31467L52.9577 6.12603L54.6207 6.54576L54.5751 6.85766L53.2851 6.53736L53.0367 7.53349L54.2701 7.85584L54.1961 8.16876L52.9628 7.84641L52.6374 9.07096L53.9558 9.39025L53.8261 9.73338Z" fill="white"/>
<path d="M60.6768 8.24581L59.1394 9.73957L58.733 11.0799L58.3601 10.9804L58.7665 9.64015L58.3217 7.54069L58.7523 7.66624L59.0675 9.31906L60.2745 8.11924L60.6768 8.24581Z" fill="white"/>
<path d="M62.3417 8.72207C62.6873 8.85068 62.9224 9.06788 63.0196 9.40285C63.1169 9.73782 63.0754 10.1624 62.896 10.7048C62.7156 11.219 62.5017 11.5933 62.1977 11.8299C61.921 12.0373 61.6109 12.1048 61.237 11.9772C60.8914 11.8486 60.6563 11.6314 60.5874 11.2954C60.4901 10.9605 60.5317 10.5359 60.7111 9.99353C60.8905 9.45117 61.1337 9.10396 61.4094 8.86841C61.6577 8.66204 61.9688 8.62265 62.3417 8.72207ZM61.3393 11.6633C61.7994 11.816 62.1845 11.4637 62.4653 10.5792C62.7754 9.72189 62.671 9.18973 62.211 9.03704C61.9809 8.96069 61.7843 9.02416 61.5918 9.20032C61.3992 9.37648 61.2401 9.69246 61.085 10.1211C60.93 10.5498 60.8854 10.8899 60.9229 11.1424C60.9614 11.423 61.1093 11.587 61.3393 11.6633Z" fill="white"/>
<path d="M65.2235 12.2289C65.0948 12.6002 64.9043 12.8327 64.7087 12.9244C64.5131 13.016 64.2577 13.0252 63.9415 12.9237C63.3365 12.6916 63.1785 12.246 63.4379 11.5598L64.2426 9.4436L64.6166 9.57119L63.8108 11.6592C63.6294 12.1452 63.6973 12.453 64.0723 12.6088C64.2456 12.6872 64.4158 12.6811 64.5263 12.5925C64.6651 12.5029 64.7725 12.3298 64.8769 12.0722L65.6827 9.98417L66.0566 10.1118L65.2235 12.2289Z" fill="white"/>
<path d="M71.8913 12.7511L70.0306 15.5257L69.7124 15.3679L70.0408 13.4381L68.7 14.8684L68.3818 14.7106L69.4905 11.5681L69.8371 11.7249L68.8763 14.2415L70.054 13.0146L70.4005 13.1713L70.1198 14.8456L71.5447 12.5943L71.8913 12.7511Z" fill="white"/>
<path d="M72.5248 16.9311L72.1772 16.7462L73.0073 15.3343L72.0212 14.7774L71.1912 16.1893L70.8436 16.0044L72.5027 13.1523L72.8503 13.3373L72.1814 14.4896L73.1674 15.0464L73.8363 13.8942L74.1839 14.0791L72.5248 16.9311Z" fill="white"/>
<path d="M74.8241 18.4554L73.3962 17.4631L75.3167 14.771L76.7162 15.7643L76.5267 16.025L75.42 15.275L74.8251 16.1143L75.874 16.8382L75.6845 17.0988L74.6356 16.375L73.9059 17.4166L75.0136 18.1948L74.8241 18.4554Z" fill="white"/>
<path d="M77.2854 20.5392L76.9327 20.2134L77.1821 18.4557L76.8598 18.1852L75.8778 19.3205L75.5849 19.0772L77.7689 16.6012L78.4732 17.2246C78.7083 17.4418 78.8583 17.6621 78.8947 17.8864C78.9312 18.1108 78.8542 18.3392 78.691 18.5425C78.5542 18.6884 78.387 18.7791 78.1894 18.8144C77.9918 18.8497 77.7627 18.8015 77.5601 18.696L77.2854 20.5392ZM77.0777 17.9235L77.4587 18.2483C77.6057 18.3841 77.779 18.4624 77.9492 18.4563C78.1195 18.4502 78.2593 18.3888 78.3688 18.272C78.614 17.9811 78.5755 17.7005 78.2239 17.4028L77.8429 17.0781L77.0777 17.9235Z" fill="white"/>
<path d="M78.8539 22.2876L77.6997 21.0034L80.2069 18.8261L81.3327 20.1113L81.0845 20.3177L80.1957 19.306L79.4245 19.9824L80.2828 20.9388L80.0345 21.1452L79.2066 20.2441L78.2428 21.0967L79.1316 22.1084L78.8539 22.2876Z" fill="white"/>
<path d="M84.1816 25.848C84.1745 25.6508 84.139 25.4546 84.0762 25.2876C84.0124 25.0925 83.8938 24.9557 83.7773 24.8753C83.6323 24.7959 83.4895 24.7728 83.3496 24.8342C83.153 24.8977 83.0476 25.1272 83.0324 25.4944C83.0131 25.7489 82.9918 25.9471 82.9949 26.0316C82.9695 26.1172 82.9452 26.2309 82.9199 26.3164C82.8672 26.4311 82.8135 26.5177 82.7314 26.6052C82.6493 26.6928 82.5662 26.7522 82.4263 26.8136C82.1182 26.9375 81.8619 26.9185 81.6014 26.7869C81.3694 26.6542 81.191 26.435 81.0684 26.1855C80.9741 25.935 80.9367 25.6825 80.9559 25.428L81.266 25.3604C81.2478 25.6431 81.2843 25.8675 81.3471 26.0345C81.4393 26.2286 81.5579 26.3654 81.7038 26.4729C81.8487 26.5523 82.0189 26.5462 82.2156 26.4827C82.3554 26.4213 82.4659 26.3327 82.5186 26.218C82.5713 26.1033 82.6209 25.9041 82.6402 25.6495C82.6595 25.395 82.6534 25.2259 82.6787 25.1404C82.7041 25.0549 82.7294 24.9694 82.7547 24.8838C82.8084 24.7973 82.8622 24.7107 82.9169 24.6524C82.9716 24.594 83.0547 24.5346 83.1672 24.5023C83.4195 24.4086 83.6476 24.4287 83.8786 24.5332C84.0823 24.6669 84.2596 24.8579 84.3833 25.1356C84.4481 25.3589 84.513 25.5822 84.5211 25.8076L84.1816 25.848Z" fill="white"/>
<path d="M82.1058 29.7588L81.7613 28.0788L85.0336 27.4253L85.3781 29.1053L85.0397 29.1738L84.7945 27.8852L83.779 28.0909L84.0232 29.3514L83.6847 29.42L83.4405 28.1595L82.1707 28.4026L82.4169 29.7194L82.1058 29.7588Z" fill="white"/>
<path d="M82.232 32.49L82.227 30.7696L85.5489 30.7066L85.5539 32.427L85.2134 32.4392L85.1942 31.1143L84.1717 31.1228L84.1889 32.3914L83.8484 32.4037L83.8595 31.134L82.5816 31.1517L82.6019 32.5049L82.232 32.49Z" fill="white"/>
<path d="M84.1792 39.2176L82.7017 37.6347L81.3499 37.1756L81.4786 36.8043L82.8304 37.2634L84.9758 36.8761L84.8481 37.2755L83.1821 37.5611L84.3343 38.7889L84.1792 39.2176Z" fill="white"/>
<path d="M83.3089 41.1105C83.1214 41.4275 82.8721 41.6057 82.5043 41.6472C82.1648 41.6876 81.7341 41.562 81.2416 41.2977C80.7491 41.0333 80.4268 40.7628 80.2444 40.4309C80.063 40.1272 80.0803 39.8163 80.2667 39.4711C80.4542 39.1541 80.7035 38.9759 81.0714 38.9345C81.4109 38.8941 81.8416 39.0196 82.3341 39.284C82.8266 39.5483 83.1499 39.847 83.3313 40.1507C83.4843 40.4555 83.4954 40.7654 83.3089 41.1105ZM80.5566 39.6299C80.3164 40.0617 80.6163 40.5022 81.427 40.9243C82.2378 41.3465 82.7779 41.3553 82.9897 40.9246C83.0961 40.7233 83.088 40.4979 82.9381 40.2777C82.7881 40.0574 82.5246 39.8412 82.1192 39.6302C81.7139 39.4191 81.3977 39.3176 81.1129 39.2997C80.887 39.336 80.6914 39.4276 80.5566 39.6299Z" fill="white"/>
<path d="M79.095 43.2079C78.7737 42.9656 78.5954 42.7464 78.5589 42.522C78.5224 42.2977 78.5701 42.0421 78.7606 41.8096C79.1396 41.2883 79.622 41.271 80.2057 41.7013L82.045 43.0737L81.8007 43.3927L79.9909 42.0475C79.5531 41.7247 79.2409 41.7359 78.9957 42.0268C78.8872 42.1717 78.8366 42.3428 78.8984 42.4816C78.9318 42.6214 79.0798 42.7854 79.3129 42.9462L81.1228 44.2915L80.8785 44.6105L79.095 43.2079Z" fill="white"/>
<path d="M76.044 49.2413L74.2382 46.4292L74.5139 46.1937L76.1434 47.2634L75.3692 45.486L75.6448 45.2505L78.084 47.5039L77.78 47.7404L75.8657 45.863L76.5467 47.4181L76.2427 47.6547L74.8168 46.7187L76.346 48.9484L76.044 49.2413Z" fill="white"/>
<path d="M71.9117 48.0919L72.2167 47.8835L73.1743 49.2312L74.1168 48.5768L73.1592 47.2291L73.4643 47.0207L75.3795 49.716L75.0745 49.9244L74.2972 48.8523L73.3547 49.5068L74.132 50.5789L73.8269 50.7873L71.9117 48.0919Z" fill="white"/>
<path d="M69.5477 49.5307L71.0496 48.6305L72.7703 51.4457L71.2957 52.3166L71.1154 52.0411L72.2555 51.3513L71.7123 50.4683L70.5996 51.1288L70.4192 50.8532L71.5319 50.1927L70.8672 49.0884L69.6987 49.7791L69.5477 49.5307Z" fill="white"/>
<path d="M66.6771 51.0726L67.0956 50.8602L68.6613 51.7347L69.0515 51.5232L68.3503 50.1945L68.6847 50.0133L70.2392 52.9472L69.4021 53.3722C69.1234 53.5232 68.869 53.5606 68.64 53.5124C68.411 53.4642 68.2356 53.3295 68.113 53.0801C68.0218 52.9141 67.9864 52.7179 68.036 52.5187C68.0857 52.3195 68.1931 52.1464 68.3857 51.9702L66.6771 51.0726ZM69.2045 51.828L68.786 52.0405C68.6188 52.1311 68.4809 52.2489 68.4302 52.4199C68.3786 52.5628 68.3846 52.7318 68.4464 52.8706C68.6289 53.2025 68.9146 53.2487 69.3048 53.0372L69.7507 52.7955L69.2045 51.828Z" fill="white"/>
<path d="M64.4689 52.0824L66.0337 51.3492L67.4199 54.3456L65.8552 55.0788L65.7022 54.7741L66.9041 54.2231L66.4734 53.3078L65.2999 53.8577L65.1469 53.553L66.3204 53.0031L65.7671 51.8383L64.5368 52.3902L64.4689 52.0824Z" fill="white"/>
<path d="M60.3512 56.8848C60.5499 56.8776 60.7475 56.8423 60.9157 56.7799C61.1123 56.7164 61.2501 56.5986 61.3312 56.4829C61.4123 56.3671 61.4346 56.1971 61.3728 56.0583C61.3089 55.8632 61.0779 55.7586 60.708 55.7437C60.4516 55.7247 60.252 55.7037 60.1668 55.7068C60.0817 55.7098 59.9662 55.6576 59.88 55.6325C59.7645 55.5802 59.6774 55.5269 59.5892 55.4455C59.501 55.364 59.4402 55.2534 59.4078 55.1417C59.2832 54.8359 59.3024 54.5814 59.4636 54.3217C59.5973 54.0913 59.8183 53.9141 60.099 53.8194C60.3797 53.7247 60.6341 53.6874 60.8621 53.7074L60.9026 54.0444C60.6178 54.0264 60.3919 54.0627 60.2236 54.1252C60.027 54.1887 59.8608 54.3075 59.7818 54.4795C59.7027 54.6516 59.6794 54.7935 59.7716 54.9876C59.8334 55.1264 59.8942 55.2371 60.0381 55.2883C60.1537 55.3406 60.3543 55.3898 60.5823 55.4098C60.8387 55.4288 61.01 55.4508 61.0951 55.4478C61.1813 55.4729 61.2674 55.498 61.3535 55.5231C61.4397 55.5482 61.5278 55.6296 61.5866 55.6839C61.6454 55.7382 61.7062 55.8489 61.7376 55.9324C61.8318 56.1828 61.8116 56.4092 61.6778 56.6397C61.544 56.8701 61.3504 57.0181 61.0414 57.1138C60.8447 57.1773 60.6198 57.2418 60.3928 57.25L60.3512 56.8848Z" fill="white"/>
<path d="M56.4243 55.1358L58.0812 54.5967L59.131 57.7181L57.5024 58.2561L57.4062 57.9493L58.6699 57.5372L58.3507 56.5615L57.1437 56.9715L57.0475 56.6647L58.2544 56.2547L57.842 55.0566L56.5509 55.4979L56.4243 55.1358Z" fill="white"/>
<path d="M53.6705 55.9966L55.3284 55.4857L56.2941 58.6383L54.6362 59.1492L54.5399 58.8424L55.8604 58.4282L55.5696 57.4515L54.3332 57.8344L54.2369 57.5276L55.4733 57.1447L55.0882 55.9175L53.7951 56.3024L53.6705 55.9966Z" fill="white"/>
<path d="M48.6151 60.7758L49.1371 58.698L48.7753 57.329L49.1412 57.2312L49.5029 58.6003L50.9804 60.1831L50.5578 60.2829L49.4056 59.0551L49.0103 60.7052L48.6151 60.7758Z" fill="white"/>
<path d="M46.9833 61.2293C46.6174 61.3271 46.3012 61.2256 46.0661 61.0084C45.831 60.7912 45.6172 60.3758 45.4845 59.8447C45.3517 59.3135 45.3639 58.8618 45.4663 58.5479C45.5686 58.2339 45.8443 57.9984 46.1828 57.9298C46.5486 57.832 46.8648 57.9335 47.0999 58.1507C47.3644 58.395 47.5488 58.7833 47.6816 59.3144C47.8143 59.8456 47.8021 60.2973 47.6998 60.6112C47.5984 60.9533 47.3501 61.1597 46.9833 61.2293ZM46.279 58.2366C45.7997 58.3384 45.676 58.8506 45.8787 59.7459C46.0814 60.6412 46.436 61.0233 46.9154 60.9215C47.1404 60.857 47.3055 60.71 47.3532 60.4545C47.4008 60.1989 47.3887 59.8608 47.2873 59.4132C47.186 58.9655 47.033 58.6608 46.8557 58.4697C46.7057 58.2495 46.504 58.1721 46.279 58.2366Z" fill="white"/>
<path d="M42.6699 59.8048C42.6 59.4406 42.6172 59.1298 42.7237 58.9285C42.8301 58.7272 43.052 58.5782 43.3631 58.5388C43.9833 58.4037 44.3917 58.6993 44.5316 59.4276L44.9814 61.6679L44.6146 61.7375L44.1667 59.5536C44.0634 59.0496 43.8273 58.8042 43.433 58.903C43.2354 58.9383 43.125 59.0269 43.0449 59.1708C42.9932 59.3137 42.9719 59.5119 43.0388 59.7916L43.4867 61.9755L43.1198 62.0451L42.6699 59.8048Z" fill="white"/>
<path d="M36.6387 62.7298L36.8314 59.3946L37.2003 59.3813L37.8903 61.1899L38.3333 59.2842L38.7021 59.271L39.3314 62.5484L38.9625 62.5617L38.4974 59.8988L38.1305 61.548L37.7332 61.5622L37.1364 59.976L37.035 62.6874L36.6387 62.7298Z" fill="white"/>
<path d="M33.9631 59.4413L34.3613 59.4552L34.3633 61.091L35.5003 61.1066L35.4984 59.4707L35.8966 59.4846L35.8732 62.7855L35.4749 62.7717L35.4841 61.4456L34.3471 61.4301L34.3379 62.7561L33.9396 62.7422L33.9631 59.4413Z" fill="white"/>
<path d="M31.2007 59.2582L32.9387 59.3932L32.6589 62.6751L30.9493 62.5391L30.9655 62.2L32.3053 62.3211L32.3823 61.3029L31.1004 61.208L31.1166 60.8689L32.3985 60.9639L32.4949 59.6912L31.1551 59.5701L31.2007 59.2582Z" fill="white"/>
<path d="M28.0016 58.7805L28.487 58.8476L29.1994 60.4862L29.628 60.5554L29.8591 59.0804L30.231 59.1516L29.6948 62.4146L28.7797 62.25C28.4656 62.2049 28.2335 62.0722 28.0856 61.9083C27.9366 61.7162 27.8718 61.4929 27.9194 61.2373C27.9407 61.0391 28.0481 60.866 28.2143 60.7472C28.3795 60.6003 28.5761 60.5368 28.8031 60.5286L28.0016 58.7805ZM29.554 60.8683L29.0686 60.8011C28.869 60.7801 28.6987 60.7862 28.5599 60.8758C28.421 60.9654 28.34 61.0812 28.3177 61.2512C28.2457 61.6205 28.4524 61.8387 28.9095 61.9069L29.3949 61.9741L29.554 60.8683Z" fill="white"/>
<path d="M25.6501 58.1885L27.3414 58.6072L26.5195 61.824L24.8565 61.4043L24.9305 61.0913L26.2205 61.4117L26.4688 60.4155L25.2355 60.0932L25.3095 59.7803L26.5428 60.1026L26.8682 58.8781L25.5497 58.5588L25.6501 58.1885Z" fill="white"/>
<path d="M19.3144 58.98C19.4613 59.1157 19.6356 59.2223 19.7805 59.3017C19.9538 59.3801 20.1251 59.4021 20.2943 59.3679C20.4352 59.3346 20.5457 59.246 20.6257 59.1021C20.7048 58.93 20.6389 58.6785 20.3744 58.4342C20.1971 58.2431 20.0785 58.1064 20.0187 58.0239C19.9589 57.9414 19.9275 57.8579 19.8677 57.7755C19.8353 57.6638 19.8029 57.5521 19.7988 57.4395C19.7948 57.3268 19.8191 57.2131 19.8718 57.0984C20.0036 56.8116 20.1961 56.6354 20.4768 56.5407C20.7586 56.4742 21.0149 56.4932 21.2744 56.5967C21.5338 56.7002 21.7385 56.862 21.8875 57.0541L21.6696 57.3158C21.4912 57.0966 21.3159 56.9618 21.1426 56.8835C20.941 56.8061 20.7697 56.784 20.6005 56.8183C20.4322 56.8808 20.3218 56.9694 20.2153 57.1706C20.1637 57.3135 20.1393 57.4272 20.1728 57.5671C20.2062 57.7069 20.3248 57.8436 20.4737 58.0357C20.6511 58.2268 20.7696 58.3636 20.8 58.4189C20.8588 58.4732 20.8902 58.5567 20.9216 58.6402C20.9531 58.7237 20.9855 58.8353 20.9601 58.9208C20.9632 59.0053 20.9389 59.119 20.8851 59.2056C20.7808 59.4632 20.5872 59.6112 20.3622 59.6757C20.1089 59.7412 19.8515 59.694 19.592 59.5905C19.3904 59.5132 19.215 59.3784 19.0397 59.2437L19.3144 58.98Z" fill="white"/>
<path d="M17.8887 54.8851L19.3967 55.7335L17.767 58.6127L16.2591 57.7643L16.4192 57.4765L17.5785 58.1118L18.0863 57.2191L16.9553 56.5828L17.1155 56.295L18.2464 56.9313L18.8879 55.8082L17.6992 55.1458L17.8887 54.8851Z" fill="white"/>
<path d="M15.5315 53.3339L16.9583 54.298L15.0672 57.0173L13.6404 56.0532L13.8289 55.7644L14.9355 56.5143L15.5304 55.675L14.4815 54.9511L14.67 54.6623L15.7189 55.3862L16.4486 54.3445L15.342 53.5945L15.5315 53.3339Z" fill="white"/>
<path d="M8.68178 51.6904L10.7633 51.1078L11.7788 50.1123L12.0443 50.3848L11.0288 51.3803L10.3924 53.434L10.0975 53.1344L10.6083 51.5365L8.97769 52.0182L8.68178 51.6904Z" fill="white"/>
<path d="M7.43888 50.2966C7.20176 50.0231 7.13285 49.6871 7.23522 49.3731C7.33758 49.0592 7.60817 48.6828 8.05104 48.3566C8.4929 48.0022 8.88408 47.819 9.22357 47.7785C9.56306 47.7381 9.88025 47.8678 10.1184 48.1695C10.3555 48.443 10.4244 48.779 10.3221 49.0929C10.2207 49.4351 9.9491 49.7833 9.50623 50.1095C9.06438 50.4638 8.6732 50.6471 8.33371 50.6875C7.96483 50.7008 7.67702 50.5983 7.43888 50.2966ZM9.84071 48.3487C9.54278 47.9645 9.00669 48.0684 8.28918 48.6583C7.57167 49.2482 7.36087 49.7071 7.65879 50.0913C7.80776 50.2833 8.00842 50.3325 8.29116 50.2942C8.54451 50.2287 8.85157 50.0766 9.21134 49.8098C9.57009 49.5149 9.78799 49.2532 9.89339 49.0237C9.99879 48.7943 9.98967 48.5408 9.84071 48.3487Z" fill="white"/>
<path d="M7.01709 45.6859C7.35051 45.4765 7.63123 45.3818 7.86025 45.43C8.08827 45.45 8.29296 45.6119 8.47334 45.8875C8.83308 46.4104 8.68005 46.8954 8.06896 47.2841L6.15357 48.5376L5.9428 48.2067L7.83081 46.9824C8.27469 46.6844 8.40644 46.3976 8.19566 46.0667C8.07609 45.9017 7.95955 45.8213 7.81767 45.8264C7.6758 45.8315 7.47919 45.895 7.22888 46.045L5.34087 47.2693L5.13009 46.9384L7.01709 45.6859Z" fill="white"/>
<path d="M2.29797 40.8632L5.56622 40.097L5.69188 40.431L4.14336 41.6148L6.09923 41.4881L6.22488 41.8221L3.24036 43.3679L3.11369 43.0057L5.54286 41.8184L3.84236 41.9359L3.7157 41.5738L5.07066 40.5379L2.42463 41.2253L2.29797 40.8632Z" fill="white"/>
<path d="M4.84396 37.3866L4.94224 37.7497L3.33701 38.1459L3.60349 39.2363L5.20874 38.8402L5.30702 39.2033L2.06715 39.9685L1.96886 39.6054L3.26501 39.3049L2.99852 38.2145L1.70237 38.5149L1.60408 38.1518L4.84396 37.3866Z" fill="white"/>
<path d="M4.49099 34.692L4.66625 36.4063L1.35443 36.751L1.17917 35.0367L1.51866 34.9963L1.65137 36.3172L2.66985 36.196L2.53916 34.9314L2.87865 34.891L3.00934 36.1556L4.28319 36.0252L4.15048 34.7043L4.49099 34.692Z" fill="white"/>
<path d="M4.51855 31.5034L4.50739 31.9833L2.94874 32.8855L2.93555 33.3091L4.4435 33.3677L4.4293 33.7631L1.10128 33.6571L1.12462 32.7255C1.14186 32.4146 1.21787 32.158 1.38205 31.9829C1.54623 31.8077 1.77019 31.7151 2.02658 31.734C2.22622 31.7551 2.3985 31.8053 2.54544 31.941C2.69238 32.0768 2.81297 32.2699 2.84944 32.4942L4.51855 31.5034ZM2.62241 33.2922L2.63357 32.8123C2.65486 32.6141 2.59204 32.4471 2.47347 32.3103C2.35491 32.1735 2.23938 32.1213 2.06812 32.0992C1.69823 32.0843 1.5077 32.3168 1.49451 32.7404L1.48334 33.2203L2.62241 33.2922Z" fill="white"/>
<path d="M4.91782 29.1761L4.63807 30.8786L1.3506 30.3198L1.63136 28.6455L1.97389 28.6896L1.73671 29.9956L2.76532 30.1561L2.97615 28.9075L3.31867 28.9516L3.10784 30.2002L4.36547 30.4088L4.60164 29.0747L4.91782 29.1761Z" fill="white"/>
<path d="M3.89749 22.9233C3.76068 23.0692 3.65325 23.2423 3.57318 23.3862C3.49413 23.5583 3.47183 23.7283 3.50628 23.8963C3.53972 24.0361 3.6289 24.1458 3.80219 24.2241C3.97548 24.3025 4.22782 24.2089 4.4751 23.9743C4.66765 23.7982 4.80547 23.6804 4.88858 23.621C4.97168 23.5616 5.05478 23.5022 5.13889 23.471C5.25138 23.4387 5.36387 23.4065 5.47737 23.4024C5.59087 23.3983 5.70538 23.4224 5.82091 23.4746C6.10973 23.6053 6.31545 23.7953 6.38232 24.075C6.4492 24.3547 6.45831 24.6082 6.32655 24.895C6.22217 25.1526 6.05901 25.3559 5.86544 25.5039L5.60297 25.3159C5.79552 25.1397 5.95869 24.9364 6.00936 24.7653C6.0874 24.5651 6.10869 24.3669 6.04688 24.2281C5.98405 24.0611 5.8665 23.9525 5.69321 23.8741C5.54931 23.8229 5.43479 23.7988 5.29494 23.8602C5.15408 23.8935 5.01626 24.0113 4.8237 24.1874C4.63115 24.3636 4.49332 24.4814 4.43758 24.5116C4.38285 24.57 4.29874 24.6012 4.21463 24.6324C4.13052 24.6636 4.01803 24.6959 3.9329 24.699C3.84777 24.702 3.73326 24.6779 3.64712 24.6528C3.38769 24.5493 3.23974 24.3854 3.17388 24.1339C3.10801 23.8824 3.12727 23.6279 3.26004 23.3693C3.33808 23.169 3.47287 22.9667 3.60867 22.7926L3.89749 22.9233Z" fill="white"/>
<path d="M8.0197 21.4209L7.19373 22.9455L4.26706 21.3584L5.09405 19.8619L5.38388 20.0208L4.74336 21.172L5.64224 21.6756L6.25539 20.5535L6.54522 20.7124L5.93207 21.8344L7.062 22.4426L7.7015 21.2631L8.0197 21.4209Z" fill="white"/>
<path d="M9.55521 19.0808L8.58331 20.4979L5.84616 18.65L6.81807 17.233L7.10891 17.42L6.35287 18.519L7.19803 19.1092L7.92772 18.0675L8.21856 18.2545L7.48888 19.2961L8.53772 20.02L9.29376 18.921L9.55521 19.0808Z" fill="white"/>
<path d="M11.1875 12.3095L11.8016 14.3747L12.8038 15.3822L12.5292 15.646L11.5269 14.6384L9.4596 14.0357L9.76161 13.7428L11.3699 14.2209L10.8855 12.6024L11.1875 12.3095Z" fill="white"/>
<path d="M12.5621 11.0471C12.8378 10.8115 13.1479 10.744 13.4924 10.8444C13.837 10.9448 14.1876 11.2143 14.5433 11.6246C14.9 12.0631 15.1128 12.4503 15.1534 12.7873C15.1939 13.1243 15.0631 13.4393 14.7875 13.6749C14.5118 13.9104 14.2017 13.978 13.8572 13.8775C13.5126 13.7771 13.162 13.5076 12.8063 13.0973C12.4496 12.6589 12.2368 12.2716 12.1963 11.9346C12.1557 11.5976 12.2865 11.2826 12.5621 11.0471ZM14.5504 13.4013C14.9365 13.0772 14.8048 12.5742 14.2403 11.8893C13.6465 11.1773 13.157 10.9975 12.7983 11.2924C12.6047 11.4404 12.555 11.6397 12.6219 11.9193C12.6888 12.199 12.8408 12.4756 13.1377 12.8316C13.4346 13.1876 13.6981 13.4037 13.9291 13.5083C14.1592 13.5846 14.3862 13.5765 14.5504 13.4013Z" fill="white"/>
<path d="M17.1744 10.5144C17.3841 10.8171 17.4794 11.0957 17.4591 11.3221C17.4388 11.5485 17.2757 11.7518 17.0264 11.93C16.4994 12.2874 16.0119 12.1639 15.6218 11.5856L14.3328 9.71392L14.6378 9.50551L15.9258 11.349C16.2258 11.7895 16.542 11.891 16.847 11.6826C17.0132 11.5638 17.0943 11.448 17.0882 11.279C17.0821 11.11 17.0193 10.943 16.8399 10.6956L15.5519 8.85213L15.857 8.64372L17.1744 10.5144Z" fill="white"/>
<path d="M21.7717 5.61098L22.7668 8.79068L22.4314 8.94377L21.1565 7.46647L21.425 9.40303L21.0896 9.55611L19.3112 6.71483L19.6466 6.56174L21.0085 8.88209L20.7775 7.19804L21.1413 7.04393L22.2672 8.32914L21.4079 5.76508L21.7717 5.61098Z" fill="white"/>
<path d="M25.4308 7.82016L25.066 7.9461L24.5269 6.38594L23.4608 6.76273L23.9999 8.32289L23.635 8.44882L22.5569 5.32852L22.8923 5.17543L23.3351 6.42878L24.4013 6.05199L23.9584 4.79864L24.3233 4.67271L25.4308 7.82016Z" fill="white"/>
<path d="M28.1037 7.10433L26.4143 7.53172L25.6169 4.31671L27.2789 3.9185L27.3478 4.2545L26.0526 4.58311L26.2867 5.5619L27.5261 5.2635L27.595 5.59949L26.3556 5.89789L26.6555 7.12817L27.9791 6.79854L28.1037 7.10433Z" fill="white"/>
<path d="M31.2953 6.56639L30.815 6.64007L29.6303 5.30056L29.2067 5.3722L29.4306 6.85906L29.0354 6.92968L28.5207 3.6763L29.453 3.52996C29.7642 3.49057 30.0206 3.50956 30.2242 3.64327C30.4279 3.77698 30.5485 3.97009 30.586 4.22259C30.6215 4.41876 30.5718 4.61798 30.4644 4.79108C30.357 4.96418 30.1918 5.11114 29.9678 5.20381L31.2953 6.56639ZM29.1378 5.0362L29.6182 4.96253C29.8158 4.92722 29.984 4.86476 30.0925 4.71983C30.2019 4.60307 30.2526 4.43202 30.2192 4.29219C30.1492 3.92803 29.9162 3.76717 29.4642 3.83983L28.9838 3.9135L29.1378 5.0362Z" fill="white"/>
<path d="M33.7044 6.39495L31.9755 6.5135L31.7436 3.22175L33.4441 3.10422L33.4562 3.44225L32.1246 3.54653L32.1894 4.55961L33.4653 4.48555L33.4774 4.82358L32.2016 4.89764L32.2755 6.16425L33.6355 6.05896L33.7044 6.39495Z" fill="white"/>
<path d="M43.3035 4.65644L41.2963 5.10366L42.7645 6.5436L40.8777 5.72558L41.2191 7.7535L40.1735 5.9827L39.2578 7.824L39.4527 5.7768L37.6295 6.72817L38.9906 5.18654L36.9564 4.88458L38.9636 4.43736L37.4954 2.99742L39.3822 3.81543L39.0408 1.78752L40.0864 3.55832L41.0022 1.71702L40.8072 3.76422L42.6304 2.81285L41.2694 4.35448L43.3035 4.65644Z" fill="#EF572E"/>
</svg>
